<svg width="71" height="71" viewBox="0 0 71 71" fill="none" xmlns="http://www.w3.org/2000/svg">
<mask id="mask0_22_2602" style="mask-type:alpha" maskUnits="userSpaceOnUse" x="0" y="0" width="71" height="71">
<rect width="70.4404" height="70.4404" fill="#D9D9D9"/>
</mask>
<g mask="url(#mask0_22_2602)">
<path d="M35.2204 39.3293L20.8388 53.7108C20.3007 54.2489 19.6158 54.518 18.7842 54.518C17.9527 54.518 17.2678 54.2489 16.7297 53.7108C16.1917 53.1728 15.9226 52.4879 15.9226 51.6563C15.9226 50.8247 16.1917 50.1399 16.7297 49.6018L31.1113 35.2202L16.7297 20.8386C16.1917 20.3006 15.9226 19.6157 15.9226 18.7841C15.9226 17.9525 16.1917 17.2677 16.7297 16.7296C17.2678 16.1915 17.9527 15.9225 18.7842 15.9225C19.6158 15.9225 20.3007 16.1915 20.8388 16.7296L35.2204 31.1112L49.6019 16.7296C50.14 16.1915 50.8249 15.9225 51.6564 15.9225C52.488 15.9225 53.1729 16.1915 53.711 16.7296C54.2491 17.2677 54.5181 17.9525 54.5181 18.7841C54.5181 19.6157 54.2491 20.3006 53.711 20.8386L39.3294 35.2202L53.711 49.6018C54.2491 50.1399 54.5181 50.8247 54.5181 51.6563C54.5181 52.4879 54.2491 53.1728 53.711 53.7108C53.1729 54.2489 52.488 54.518 51.6564 54.518C50.8249 54.518 50.14 54.2489 49.6019 53.7108L35.2204 39.3293Z" fill="white"/>
</g>
</svg>
