<svg width="26" height="27" viewBox="0 0 26 27" fill="none" xmlns="http://www.w3.org/2000/svg">
<path d="M0.000163032 13.5376V13.4625C0.0117263 9.88943 1.46579 6.65326 3.80734 4.31026L3.82035 4.29725C3.99669 4.12091 4.17737 3.9518 4.36384 3.78558L4.43611 3.72198C6.71554 1.72732 9.69453 0.511709 12.9626 0.500164H12.9582H13.0421H13.0377C16.3058 0.511727 19.2963 1.72876 21.5712 3.72779L21.6233 3.77259C21.8199 3.9446 22.0063 4.12527 22.1899 4.30739C24.5329 6.6504 25.9885 9.8896 26 13.4626V13.5377C25.9884 17.1064 24.5329 20.3455 22.1899 22.6885L22.1884 22.6899L22.1769 22.7029C21.9962 22.8822 21.8141 23.0542 21.6218 23.2233L21.5813 23.2579C19.3019 25.2656 16.3115 26.4885 13.0375 26.5H13.0418H12.958H12.9623C9.39074 26.4884 6.15017 25.0329 3.80718 22.6898C1.46707 20.3497 0.0116338 17.1091 0.000163032 13.5376ZM1.3516 12.8337H6.17487C6.23413 10.5616 6.59692 8.43968 7.18234 6.62433C6.35411 6.20805 5.5765 5.70649 4.86247 5.13557L4.74828 5.24832C2.7883 7.20975 1.51782 9.87649 1.3516 12.8337ZM7.5077 12.8337H12.3339V7.98159C10.9622 7.91221 9.6397 7.62746 8.40982 7.16206H8.40403C7.88659 8.81563 7.56553 10.7495 7.5077 12.8337ZM13.6668 12.8337H18.493C18.4352 10.7495 18.1143 8.81563 17.5968 7.16198H17.591C16.361 7.6274 15.0385 7.91213 13.6669 7.98151L13.6668 12.8337ZM19.8258 12.8337H24.6491C24.4828 9.87642 23.2138 7.21267 21.2509 5.24821L21.1367 5.13691C20.4241 5.70786 19.6465 6.20795 18.8183 6.62423C19.4037 8.43965 19.7665 10.5618 19.8258 12.8337ZM24.6491 14.1664H19.8258C19.7665 16.4372 19.4023 18.5605 18.8183 20.3743C19.6451 20.7892 20.4213 21.2879 21.1368 21.8631L21.251 21.7518L21.2524 21.7504C23.2138 19.7904 24.4829 17.1237 24.6491 14.1664ZM18.493 14.1664H13.6668V19.0186C15.0428 19.0865 16.3625 19.3727 17.5953 19.8381H17.5982C18.1156 18.1845 18.4351 16.2507 18.493 14.1664ZM12.3339 14.1664H7.5077C7.56551 16.2507 7.88494 18.1845 8.40242 19.8382H8.40675C9.63823 19.3728 10.9579 19.0866 12.3338 19.0186L12.3339 14.1664ZM6.17487 14.1664H1.3516C1.51783 17.1237 2.78689 19.7875 4.74831 21.7505L4.86395 21.8632C5.57943 21.2894 6.35707 20.7893 7.18237 20.3745C6.59844 18.5605 6.23415 16.4369 6.17487 14.1664ZM17.1224 5.91744L17.147 5.90876C17.0285 5.61824 16.9027 5.3407 16.7697 5.07765C15.9242 3.38796 14.843 2.24173 13.6665 1.92377V6.64752C14.8777 6.57959 16.0413 6.3265 17.1224 5.91744ZM18.3582 5.36528C18.9754 5.04585 19.5651 4.6686 20.1115 4.24655C19.0679 3.44289 17.8813 2.8127 16.5977 2.39642C17.0978 2.97891 17.5546 3.68285 17.955 4.48214C18.0966 4.764 18.231 5.05742 18.3582 5.36528ZM8.87782 5.91744C9.96044 6.3265 11.1225 6.57945 12.3338 6.64739V1.92364C11.1572 2.24163 10.076 3.38783 9.23194 5.07751C9.09751 5.34058 8.97177 5.61809 8.85325 5.90863L8.87782 5.91744ZM5.88873 4.24655C6.43799 4.67004 7.02482 5.0444 7.64202 5.36528C7.76921 5.05741 7.90363 4.76399 8.04527 4.48214C8.44564 3.68281 8.90239 2.97891 9.40252 2.39642C8.11898 2.8127 6.93375 3.44433 5.88873 4.24655ZM8.87494 21.0827L8.85326 21.0914C8.97178 21.3819 9.09753 21.6595 9.23194 21.9225C10.076 23.6122 11.1572 24.7584 12.3338 25.0764V20.3526C11.1211 20.4206 9.95611 20.6722 8.87494 21.0827ZM7.64202 21.6334C7.02337 21.9529 6.43511 22.3287 5.88729 22.7493C6.93231 23.5544 8.11898 24.1889 9.40252 24.6037C8.90239 24.0212 8.44567 23.3173 8.04527 22.518C7.90362 22.2347 7.7692 21.9413 7.64202 21.6334ZM17.1254 21.0827C16.0442 20.6722 14.8792 20.4207 13.6665 20.3528V25.0765C14.8431 24.7585 15.9242 23.6123 16.7698 21.9226C16.9028 21.6596 17.0285 21.3821 17.147 21.0915L17.1254 21.0827ZM20.113 22.7493C19.5666 22.3287 18.9769 21.9529 18.3583 21.6334C18.2311 21.9413 18.0967 22.2347 17.955 22.518C17.5547 23.3173 17.0979 24.0212 16.5978 24.6037C17.8828 24.1875 19.068 23.5558 20.113 22.7493ZM13 0.5L13.0377 0.500164ZM12.9626 0.500164L13 0.5Z" fill="white"/>
</svg>
